<svg width="118" height="118" viewBox="0 0 118 118" fill="none" xmlns="http://www.w3.org/2000/svg">
<circle cx="59" cy="59" r="59" fill="black"/>
<path d="M53.8615 27.2054V75.4096C53.8615 77.7074 56.2848 79.5703 59.2739 79.5703C62.263 79.5703 64.6863 77.7074 64.6863 75.4096V27.2054L71.6839 32.5849C73.7972 34.2098 77.2244 34.2098 79.3381 32.5849C81.4518 30.9605 81.4518 28.326 79.3381 26.7008L63.1019 14.2196C62.9767 14.1231 62.8457 14.0321 62.7086 13.9456C62.6751 13.9245 62.639 13.9065 62.6047 13.8859C62.4997 13.8224 62.3943 13.76 62.2832 13.7029C62.2507 13.6862 62.2165 13.6726 62.1836 13.6563C62.0674 13.5991 61.9502 13.5431 61.8278 13.4926C61.8037 13.4829 61.778 13.4749 61.7539 13.4652C61.6214 13.4127 61.4872 13.3623 61.3487 13.3182C61.3317 13.3126 61.3137 13.3087 61.2963 13.3035C61.1506 13.2582 61.003 13.2164 60.8511 13.1809C60.832 13.1761 60.8121 13.1736 60.7926 13.1695C60.6436 13.1359 60.4931 13.1051 60.3391 13.0815C60.2932 13.0746 60.246 13.0716 60.1998 13.0652C60.0721 13.048 59.9443 13.0308 59.8141 13.0211C59.6355 13.0069 59.455 13 59.2739 13C59.0928 13 58.9124 13.0069 58.7334 13.0211C58.6013 13.0308 58.4725 13.0485 58.3437 13.0655C58.2989 13.0716 58.2531 13.0746 58.2087 13.0815C58.0532 13.1054 57.9013 13.1359 57.7509 13.1698C57.7332 13.1739 57.7144 13.1764 57.6967 13.1806C57.5441 13.2164 57.3951 13.2582 57.2479 13.304C57.232 13.309 57.215 13.3126 57.1991 13.3179C57.0595 13.3623 56.9246 13.413 56.7914 13.466C56.768 13.4751 56.7434 13.4829 56.72 13.4923C56.5969 13.5434 56.4786 13.5997 56.3613 13.6577C56.3295 13.6732 56.296 13.6865 56.265 13.7026C56.1535 13.76 56.0474 13.823 55.942 13.8862C55.9081 13.9065 55.8724 13.9245 55.8392 13.9453C55.7024 14.0321 55.5711 14.1231 55.4459 14.2194L39.2097 26.7006C38.1525 27.513 37.6242 28.5779 37.6242 29.6427C37.6242 30.7076 38.1525 31.7724 39.2097 32.5846C41.3234 34.2095 44.7502 34.2095 46.8639 32.5846L53.8615 27.2054Z" fill="#0AB9C5"/>
<path d="M103.548 70.5003C103.548 59.1434 96.2187 48.5769 83.9429 42.2346C81.4623 40.9531 78.0993 41.4602 76.432 43.3672C74.7649 45.2744 75.4238 47.8593 77.9052 49.1414C87.1839 53.9347 92.7233 61.9194 92.7233 70.5003C92.723 84.6786 77.718 96.2136 59.2739 96.2136C40.8298 96.2136 25.8248 84.6786 25.8248 70.5003C25.8248 61.9446 31.3393 53.973 40.5758 49.176C43.0529 47.8893 43.7038 45.3035 42.0307 43.3991C40.3572 41.4951 36.9928 40.9942 34.5161 42.2807C22.2956 48.6274 15 59.1766 15 70.5003C15 89.267 34.861 104.535 59.2739 104.535C83.6868 104.535 103.548 89.267 103.548 70.5003Z" fill="#0AB9C5"/>
</svg>
